<svg width="16" height="16" viewBox="0 0 16 16" fill="none" xmlns="http://www.w3.org/2000/svg">
<path d="M7 1C7 0.447715 6.55228 0 6 0C5.44772 0 5 0.447715 5 1V2H4C2.34315 2 1 3.34315 1 5C1 5.55228 1.44772 6 2 6C2.55228 6 3 5.55228 3 5C3 4.44772 3.44772 4 4 4H5V5.00037C5 5.55266 5.44772 6.0004 6 6.0004C6.55228 6.0004 7 5.55228 7 5V4H9V5.00037C9 5.55266 9.44771 6.0004 10 6.0004C10.5523 6.0004 11 5.55228 11 5V4H13V8H2C1.44772 8 1 8.44772 1 9V13C1 14.1046 1.89543 15 3 15H13C14.1046 15 15 14.1046 15 13V4C15 2.89543 14.1046 2 13 2H11V1C11 0.447715 10.5523 0 10 0C9.44771 0 9 0.447715 9 1V2H7V1ZM3 10H13V13H3V10Z" fill="#001122" fill-opacity="0.55"/>
</svg>
