<svg width="25" height="24" viewBox="0 0 25 24" fill="none" xmlns="http://www.w3.org/2000/svg">
<path d="M8.66498 3V2C8.66498 1.44772 9.11269 1 9.66498 1C10.2173 1 10.665 1.44772 10.665 2V3H14.665V2C14.665 1.44772 15.1127 1 15.665 1C16.2173 1 16.665 1.44772 16.665 2V3H18.665C20.3218 3 21.665 4.34315 21.665 6V18C21.665 19.6569 20.3218 21 18.665 21H6.66498C5.00812 21 3.66498 19.6569 3.66498 18V10C3.66498 9.44772 4.11269 9 4.66498 9H19.665V6C19.665 5.44772 19.2173 5 18.665 5H16.665V6C16.665 6.55228 16.2173 7 15.665 7C15.1127 7 14.665 6.55228 14.665 6V5H10.665V6C10.665 6.55228 10.2173 7 9.66498 7C9.11269 7 8.66498 6.55228 8.66498 6V5H6.66498C6.11269 5 5.66498 5.44772 5.66498 6C5.66498 6.55228 5.21726 7 4.66498 7C4.11269 7 3.66498 6.55228 3.66498 6C3.66498 4.34315 5.00812 3 6.66498 3H8.66498ZM19.665 11H5.66498V18C5.66498 18.5523 6.11269 19 6.66498 19H18.665C19.2173 19 19.665 18.5523 19.665 18V11Z" fill="#001122" fill-opacity="0.45"/>
</svg>
