<svg width="44" height="44" viewBox="0 0 44 44" fill="none" xmlns="http://www.w3.org/2000/svg">
<rect width="44" height="44" rx="8" fill="#6183A2" fill-opacity="0.1"/>
<path d="M15.126 16C15.5701 14.2748 17.1362 13 19 13C20.8638 13 22.4299 14.2748 22.874 16H31C31.5523 16 32 16.4477 32 17C32 17.5523 31.5523 18 31 18L22.874 18C22.4299 19.7252 20.8638 21 19 21C17.1362 21 15.5701 19.7252 15.126 18H13C12.4477 18 12 17.5523 12 17C12 16.4477 12.4477 16 13 16H15.126ZM17 17C17 18.1046 17.8954 19 19 19C20.1046 19 21 18.1046 21 17C21 15.8954 20.1046 15 19 15C17.8954 15 17 15.8954 17 17Z" fill="#005BFF"/>
<path d="M21 27C21 24.7909 22.7909 23 25 23C26.8638 23 28.4299 24.2748 28.874 26H31C31.5523 26 32 26.4477 32 27C32 27.5523 31.5523 28 31 28H28.874C28.4299 29.7252 26.8638 31 25 31C22.7909 31 21 29.2091 21 27ZM23 27C23 28.1046 23.8954 29 25 29C26.1046 29 27 28.1046 27 27C27 25.8954 26.1046 25 25 25C23.8954 25 23 25.8954 23 27Z" fill="#005BFF"/>
<path d="M12 27C12 26.4477 12.4477 26 13 26H18C18.5523 26 19 26.4477 19 27C19 27.5523 18.5523 28 18 28H13C12.4477 28 12 27.5523 12 27Z" fill="#005BFF"/>
</svg>
