<svg width="68" height="32" viewBox="0 0 68 32" fill="none" xmlns="http://www.w3.org/2000/svg">
<path d="M16.0108 1C7.72377 0.994594 1.00541 7.70754 1 15.9892C0.994594 24.2762 7.70754 30.9946 15.9892 31C24.2708 31.0054 30.9946 24.2925 31 16.0108C31 16.0054 31 16 31 15.9892C31 7.71295 24.2871 1 16.0108 1ZM24.0058 15.9892C24.0058 20.4086 20.4248 23.9895 16.0108 23.9949C11.5914 24.0004 7.99964 20.4194 7.99423 16C7.98882 11.5806 11.5698 7.98882 15.9892 7.98341C20.4086 7.978 24.0004 11.559 24.0058 15.9784V15.9892Z" fill="#005BFF"/>
<path d="M41.844 23V8.45455H44.479V14.6122H51.219V8.45455H53.8611V23H51.219V16.821H44.479V23H41.844ZM56.4268 23V8.45455H61.8814C62.9988 8.45455 63.9363 8.64867 64.6939 9.03693C65.4562 9.42519 66.0315 9.9697 66.4197 10.6705C66.8127 11.3665 67.0092 12.1785 67.0092 13.1065C67.0092 14.0393 66.8104 14.849 66.4126 15.5355C66.0196 16.2173 65.4396 16.7453 64.6726 17.1193C63.9055 17.4886 62.9633 17.6733 61.8459 17.6733H57.9609V15.4858H61.4908C62.1442 15.4858 62.6792 15.3958 63.0959 15.2159C63.5125 15.0312 63.8203 14.7637 64.0192 14.4134C64.2228 14.0582 64.3246 13.6226 64.3246 13.1065C64.3246 12.5904 64.2228 12.1501 64.0192 11.7855C63.8156 11.4162 63.5054 11.1368 63.0888 10.9474C62.6721 10.7533 62.1347 10.6562 61.4766 10.6562H59.0618V23H56.4268ZM63.9411 16.4091L67.5419 23H64.6016L61.0646 16.4091H63.9411Z" fill="#001122" fill-opacity="0.95"/>
</svg>
