<?xml version="1.0" standalone="no"?>
<!DOCTYPE svg PUBLIC "-//W3C//DTD SVG 20010904//EN"
 "http://www.w3.org/TR/2001/REC-SVG-20010904/DTD/svg10.dtd">
<svg version="1.0" xmlns="http://www.w3.org/2000/svg"
 width="1088.000000pt" height="1088.000000pt" viewBox="0 0 1088.000000 1088.000000"
 preserveAspectRatio="xMidYMid meet">
<metadata>
Created by potrace 1.14, written by Peter Selinger 2001-2017
</metadata>
<g transform="translate(0.000000,1088.000000) scale(0.100000,-0.100000)"
fill="#000000" stroke="none">
<path d="M2559 7845 c-3 -2 -56 -6 -119 -9 -63 -4 -126 -8 -140 -10 -14 -2
-52 -7 -85 -11 -33 -4 -107 -18 -165 -31 -58 -14 -116 -27 -130 -30 -107 -22
-395 -141 -535 -221 -77 -44 -285 -183 -311 -207 -6 -6 -31 -26 -55 -45 -83
-65 -292 -286 -374 -396 -96 -129 -141 -198 -192 -297 -21 -40 -40 -75 -43
-78 -3 -3 -13 -23 -22 -45 -9 -22 -31 -74 -48 -115 -18 -41 -40 -102 -51 -135
-11 -33 -22 -67 -26 -75 -7 -18 -5 -9 -36 -140 -14 -58 -28 -123 -31 -145 -4
-23 -8 -52 -11 -65 -9 -48 -26 -264 -27 -340 0 -48 12 -255 16 -275 2 -11 7
-47 11 -80 8 -68 7 -65 30 -164 9 -40 18 -78 19 -85 12 -57 70 -234 97 -293
10 -24 19 -46 19 -49 0 -13 96 -202 144 -284 217 -370 553 -692 931 -895 39
-20 75 -41 81 -46 7 -6 20 -12 30 -14 11 -2 57 -20 104 -40 128 -55 302 -111
410 -131 191 -36 233 -42 370 -50 108 -6 94 -6 170 -3 36 2 71 0 77 -4 5 -3
13 -3 17 0 4 4 26 8 49 10 57 3 289 33 297 38 4 2 22 7 41 10 19 3 75 17 124
31 50 14 97 28 105 29 45 11 217 82 323 134 110 54 300 170 369 225 14 11 41
32 59 46 88 66 274 246 349 339 19 23 42 51 50 61 8 10 22 28 30 40 8 13 24
35 36 49 70 88 230 382 274 501 7 19 18 49 25 65 12 27 37 113 37 125 0 3 4
12 9 21 4 9 10 27 13 40 3 13 12 51 21 84 15 60 18 74 35 175 17 102 30 262
32 405 1 104 -22 318 -47 435 -8 42 -15 73 -21 110 -4 19 -10 42 -15 51 -4 9
-11 31 -14 49 -3 18 -12 48 -20 66 -8 19 -11 34 -8 34 3 0 1 6 -4 13 -5 6 -20
41 -32 77 -30 86 -172 373 -192 390 -3 3 -13 19 -22 35 -67 130 -350 449 -517
582 -328 261 -744 449 -1100 497 -25 4 -56 9 -70 11 -73 13 -103 16 -207 20
-63 3 -118 7 -122 10 -5 2 -10 3 -12 0z m106 -1129 c127 -10 179 -20 290 -57
298 -100 550 -301 703 -562 63 -108 120 -236 137 -311 23 -98 36 -184 40 -256
2 -47 5 -87 6 -90 1 -3 1 -8 1 -11 -1 -4 -3 -43 -6 -87 -3 -44 -10 -100 -15
-124 -5 -23 -12 -54 -15 -68 -17 -82 -96 -293 -115 -310 -4 -3 -11 -16 -18
-30 -15 -35 -120 -179 -168 -232 -107 -117 -247 -221 -387 -288 -84 -39 -228
-93 -228 -85 0 2 -12 0 -26 -6 -15 -5 -42 -12 -62 -15 -19 -3 -44 -8 -56 -11
-48 -11 -297 -9 -380 3 -150 23 -391 109 -450 162 -10 9 -19 15 -20 12 -3 -12
-183 127 -251 195 -29 28 -116 136 -142 175 -58 86 -133 229 -133 253 0 7 -4
17 -8 23 -9 10 -48 138 -57 189 -3 17 -8 46 -12 65 -3 19 -6 72 -7 117 -1 46
-4 83 -8 83 -4 0 -5 6 -3 13 3 6 7 41 9 77 11 162 67 362 138 488 10 17 28 49
39 70 18 31 63 97 104 150 51 67 268 262 292 262 3 0 14 6 22 14 31 27 169 95
255 125 47 17 87 30 89 30 1 -1 20 4 42 9 54 14 108 22 185 28 35 3 65 6 66 7
3 3 62 0 149 -7z"/>
<path d="M6696 6641 c-1 -3 -2 -526 -1 -1161 l0 -1155 58 0 c31 0 57 -4 57 -8
0 -5 5 -5 11 -1 10 6 58 7 159 3 8 0 42 0 75 1 l61 2 -1 494 0 494 85 0 c47 1
250 2 452 3 203 1 368 -1 368 -4 0 -4 16 -3 34 1 19 4 37 6 40 3 2 -3 24 -5
48 -5 25 0 51 -4 59 -9 8 -5 9 -9 4 -9 -13 0 -13 -219 -1 -239 6 -9 5 -12 0
-8 -12 7 -12 -213 0 -232 6 -8 5 -12 0 -8 -12 7 -12 -213 0 -232 6 -8 5 -12 0
-8 -6 3 -9 -43 -9 -116 l0 -122 35 -1 c19 -1 40 -3 45 -4 6 -1 13 -2 16 -2 8
1 110 2 129 1 8 0 40 0 70 1 30 0 67 0 82 0 15 -1 32 1 36 4 7 4 10 2288 4
2318 -3 13 -112 7 -112 -6 0 -8 -2 -8 -8 0 -10 15 -202 15 -221 0 -11 -8 -13
-8 -8 1 5 8 -4 11 -30 9 l-38 -2 0 -249 c-1 -138 3 -258 7 -267 4 -9 5 -19 0
-22 -9 -6 -9 -287 1 -303 4 -6 4 -14 -1 -17 -5 -3 -8 -32 -7 -65 l2 -59 -91 0
c-50 0 -95 -1 -101 -2 -5 -1 -14 -1 -20 0 -31 5 -605 4 -605 -2 0 -4 -10 -4
-22 1 -12 4 -37 5 -55 1 -17 -4 -34 -5 -37 -2 -9 8 -86 8 -86 -1 0 -4 -7 -4
-16 1 -9 5 -24 7 -33 5 -15 -4 -16 41 -16 489 l0 493 -208 1 c-115 0 -209 -2
-211 -5z"/>
<path d="M9030 6532 c0 -64 -1 -188 -3 -275 -1 -86 1 -157 4 -157 3 0 4 -10 2
-22 -6 -38 -8 -778 -2 -778 3 0 4 -10 2 -22 -6 -39 -8 -458 -2 -458 3 0 4 -10
2 -22 -2 -13 -5 -126 -6 -251 l-2 -228 23 4 c12 2 22 0 22 -4 0 -5 12 -4 26 1
14 6 30 8 35 5 7 -5 54 -6 144 -3 11 0 40 0 65 -1 25 -1 60 -1 77 -1 l33 -1 0
421 c0 232 2 424 4 428 3 6 314 8 411 3 12 -1 25 -12 32 -28 7 -16 61 -118
120 -228 60 -110 124 -230 143 -267 19 -36 37 -65 40 -63 3 2 7 -6 7 -17 1
-12 6 -24 10 -27 4 -3 19 -28 33 -56 13 -27 27 -52 30 -55 3 -3 6 -11 8 -18 6
-29 56 -92 73 -93 33 -1 109 0 112 1 8 5 207 4 207 -1 0 -4 15 -4 33 1 18 4
43 3 55 -1 12 -5 24 -4 27 1 5 8 -37 93 -95 193 -10 18 -35 65 -56 105 -21 39
-42 72 -48 72 -5 0 -7 3 -3 6 9 9 -21 64 -35 64 -6 0 -9 3 -5 6 3 4 -7 30 -22
58 -16 28 -41 76 -57 106 -16 30 -32 57 -35 60 -3 3 -12 20 -20 38 -8 17 -17
32 -21 32 -5 0 -8 9 -8 19 0 11 -3 21 -7 23 -9 3 -73 124 -73 136 0 4 17 15
38 25 47 22 67 34 122 77 60 46 70 56 63 64 -4 3 1 6 10 6 9 0 17 3 17 8 0 4
11 20 25 36 31 36 97 171 99 202 0 13 4 24 7 24 3 0 6 6 7 13 0 6 3 21 5 32
24 99 24 251 0 360 -4 17 -7 32 -8 35 -10 53 -57 156 -99 220 -28 42 -109 130
-120 130 -3 0 -17 11 -32 25 -15 14 -33 25 -40 25 -8 0 -14 4 -14 8 0 8 -105
61 -132 66 -7 2 -20 6 -28 9 -27 10 -119 29 -153 31 -18 1 -39 6 -45 10 -7 4
-12 2 -12 -4 0 -6 -5 -8 -12 -3 -21 12 -269 13 -261 0 4 -6 1 -7 -8 -1 -20 13
-220 14 -212 1 4 -6 1 -7 -8 -1 -21 13 -412 13 -421 0 -6 -8 -8 -8 -8 0 0 6
-13 11 -30 12 l-30 1 0 -117z m940 -246 c64 -12 115 -29 141 -47 14 -10 32
-19 40 -21 7 -2 29 -22 48 -45 18 -24 37 -43 41 -43 4 0 7 -6 8 -12 0 -7 8
-33 17 -58 23 -63 26 -76 26 -150 0 -81 -6 -121 -22 -152 -7 -12 -11 -23 -10
-23 1 0 -1 -9 -5 -20 -12 -32 -73 -103 -95 -110 -13 -4 -18 -12 -15 -21 3 -9
1 -12 -5 -9 -5 4 -26 -1 -45 -10 -32 -15 -43 -19 -99 -30 -20 -4 -160 -17
-180 -16 -13 1 -135 1 -155 1 -8 0 -46 1 -85 3 -38 1 -75 -1 -81 -5 -6 -4 -18
-2 -27 5 -17 12 -19 89 -17 662 l0 111 243 -2 c133 -1 258 -5 277 -8z"/>
</g>
</svg>
