<svg width="24" height="24" viewBox="0 0 24 24" fill="none" xmlns="http://www.w3.org/2000/svg">
<path d="M11 5C7.68629 5 5 7.68629 5 11C5 14.3137 7.68629 17 11 17C12.619 17 14.1689 16.3613 15.24 15.3437C15.6662 14.9389 16.3483 14.9341 16.7771 15.3629L21.7071 20.2929C22.0976 20.6834 22.0976 21.3166 21.7071 21.7071C21.3166 22.0976 20.6834 22.0976 20.2929 21.7071L15.9465 17.3607C14.5704 18.3943 12.8142 19 11 19C6.58172 19 3 15.4183 3 11C3 6.58172 6.58172 3 11 3C15.4183 3 19 6.58172 19 11C19 11.4813 18.9574 11.9535 18.8755 12.4128C18.7785 12.9565 18.2591 13.3187 17.7154 13.2217C17.1717 13.1247 16.8096 12.6054 16.9065 12.0617C16.9679 11.7178 17 11.3631 17 11C17 7.68629 14.3137 5 11 5Z" fill="#001122" fill-opacity="0.45"/>
</svg>
